HIERARCHY
ROOT Hips
{
	OFFSET 0.00000 0.00000 0.00000
	CHANNELS 6 Xposition Yposition Zposition Zrotation Yrotation Xrotation 
	JOINT LHipJoint
	{
		OFFSET 0 0 0
		CHANNELS 3 Zrotation Yrotation Xrotation
		JOINT LeftHip
		{
			OFFSET 1.80322 -1.53100 0.99595
			CHANNELS 3 Zrotation Yrotation Xrotation
			JOINT LeftKnee
			{
				OFFSET 2.25177 -6.18669 0.00000
				CHANNELS 3 Zrotation Yrotation Xrotation
				JOINT LeftAnkle
				{
					OFFSET 2.26601 -6.22582 0.00000
					CHANNELS 3 Zrotation Yrotation Xrotation
					JOINT LeftToe
					{
						OFFSET 0.23701 -0.65119 2.15848
						CHANNELS 3 Zrotation Yrotation Xrotation
						End Site
						{
							OFFSET 0.00000 -0.00000 1.12949
						}
					}
				}
			}
		}
	}
	JOINT RHipJoint
	{
		OFFSET 0 0 0
		CHANNELS 3 Zrotation Yrotation Xrotation
		JOINT RightHip
		{
			OFFSET -1.93977 -1.53100 0.99595
			CHANNELS 3 Zrotation Yrotation Xrotation
			JOINT RightKnee
			{
				OFFSET -2.28036 -6.26523 0.00000
				CHANNELS 3 Zrotation Yrotation Xrotation
				JOINT RightAnkle
				{
					OFFSET -2.25490 -6.19528 0.00000
					CHANNELS 3 Zrotation Yrotation Xrotation
					JOINT RightToe
					{
						OFFSET -0.28375 -0.77960 2.23137
						CHANNELS 3 Zrotation Yrotation Xrotation
						End Site
						{
							OFFSET -0.00000 -0.00000 1.17899
						}
					}
				}
			}
		}
	}
	JOINT lowerback
	{
		OFFSET 0 0 0
		CHANNELS 3 Zrotation Yrotation Xrotation
		JOINT Chest
		{
			OFFSET -0.00088 2.12090 -0.02806
			CHANNELS 3 Zrotation Yrotation Xrotation
			JOINT Chest2
			{
				OFFSET -0.00286 2.09666 0.12974
				CHANNELS 3 Zrotation Yrotation Xrotation
				JOINT lowerneck
				{
					OFFSET 0 0 0
					CHANNELS 3 Zrotation Yrotation Xrotation
					JOINT Neck
					{
						OFFSET 0.07328 1.83526 0.07290
						CHANNELS 3 Zrotation Yrotation Xrotation
						JOINT Head
						{
							OFFSET -0.06683 1.74974 -0.49542
							CHANNELS 3 Zrotation Yrotation Xrotation
							End Site
							{
								OFFSET -0.03398 1.85163 -0.17573
							}
						}
					}
				}
				JOINT LeftCollar
				{
					OFFSET 0 0 0
					CHANNELS 3 Zrotation Yrotation Xrotation
					JOINT LeftShoulder
					{
						OFFSET 3.02113 1.18018 0.40602
CHANNELS 3 Zrotation Xrotation Yrotation
						JOINT LeftElbow
						{
OFFSET 0 -4.585380 -0.000000
CHANNELS 3 Zrotation Xrotation Yrotation
							JOINT LeftWrist
							{
OFFSET 0 -2.689350 -0.000000
CHANNELS 3 Zrotation Xrotation Yrotation
								JOINT lhand
								{
									OFFSET 0 0 0
CHANNELS 3 Zrotation Xrotation Yrotation
									JOINT LFingers
									{
OFFSET 0 -0.585060 -0.000000
CHANNELS 3 Zrotation Xrotation Yrotation
										End Site
										{
OFFSET 0 -0.471690 -0.000000
										}
									}
								}
								JOINT LThumb
								{
OFFSET 0 0.000000 0.000000
CHANNELS 3 Zrotation Xrotation Yrotation
									End Site
									{
OFFSET 0 -0.478890 0.478890
									}
								}
							}
						}
					}
				}
				JOINT RightCollar
				{
					OFFSET 0 0 0
					CHANNELS 3 Zrotation Yrotation Xrotation
					JOINT RightShoulder
					{
						OFFSET -2.95074 1.18843 0.31430
CHANNELS 3 Zrotation Xrotation Yrotation
						JOINT RightElbow
						{
OFFSET 0 -4.474500 -0.000000
CHANNELS 3 Zrotation Xrotation Yrotation
							JOINT RightWrist
							{
OFFSET 0 -2.938960 -0.000000
CHANNELS 3 Zrotation Xrotation Yrotation
								JOINT rhand
								{
									OFFSET 0 0 0
CHANNELS 3 Zrotation Xrotation Yrotation
									JOINT RFingers
									{
OFFSET 0 -0.405090 -0.000000
CHANNELS 3 Zrotation Xrotation Yrotation
										End Site
										{
OFFSET 0 -0.326600 -0.000000
										}
									}
								}
								JOINT RThumb
								{
OFFSET 0 0.000000 0.000000
CHANNELS 3 Zrotation Xrotation Yrotation
									End Site
									{
OFFSET 0 -0.331580 0.331580
									}
								}
							}
						}
					}
				}
			}
		}
	}
}
MOTION
Frames: 9
Frame Time: 0.008333333333333333
1.426837 15.555196 8.502181 -0.987723 3.719893 11.291021 0.000000 0.000000 0.000000 -15.842598 -9.045288 2.764821 0.310116 3.575842 9.886743 1.001488 3.029084 -20.224887 0.188901 -2.798542 -7.718356 0.000000 0.000000 0.000000 -3.498056 17.991633 -32.819056 -1.960756 -8.783736 25.121143 0.149966 -9.194226 3.181673 -0.942535 6.183433 -17.317588 -1.096279 -0.023489 -0.808193 0.811221 -0.015029 -6.072682 1.456013 0.074732 -5.833925 10.010322 3.699192 -9.921026 -8.197294 5.421068 26.347458 -4.001732 2.592860 10.550436 0.000000 0.000000 0.000000 22.001861 0.488527 -48.521924 144.625896 -45.076823 104.922201 21.610561 1.410036 -10.628982 0.000000 0.000000 0.000000 -7.125000 0.000000 0.000000 -4.859617 41.343463 -0.439586 0.000000 0.000000 0.000000 -27.655869 -19.496957 17.916771 -119.458535 -56.452406 -85.207972 -37.003992 -4.936761 -4.306394 0.000000 0.000000 0.000000 7.125000 0.000000 0.000000 -7.730702 24.594174 -3.845283
0.899036 15.535310 8.933403 -1.182417 12.375989 11.542259 0.000000 0.000000 0.000000 -11.920466 -14.464022 6.230745 0.084139 1.870217 5.147180 0.773492 2.659867 -17.781907 0.321526 -3.644161 -10.077797 0.000000 0.000000 0.000000 -0.724859 13.358500 -29.758705 -2.089200 -9.049230 25.949545 0.270223 -10.393054 1.362778 -1.089934 6.634828 -18.637877 -0.820067 0.249439 -1.272720 0.512221 0.362748 -6.479942 0.975281 0.249559 -6.007965 6.710336 1.180139 -10.694246 -5.537355 1.866405 28.250793 -2.935035 0.949361 10.966949 0.000000 0.000000 0.000000 21.228027 -3.801789 -56.418274 146.955634 -43.363823 106.547399 20.945527 1.095036 -8.817484 0.000000 0.000000 0.000000 -7.125000 0.000000 0.000000 -5.190537 39.359818 -0.723662 0.000000 0.000000 0.000000 -28.003994 -24.234470 16.521373 -120.833762 -56.083502 -86.351682 -38.648069 -2.770235 -4.501327 0.000000 0.000000 0.000000 7.125000 0.000000 0.000000 -8.914737 24.229017 -4.523613
0.296539 15.481202 9.414350 -1.553510 21.829892 11.599217 0.000000 0.000000 0.000000 -7.455578 -20.860546 9.263984 0.000645 0.030680 0.084319 0.505075 3.534893 -15.181279 0.448858 -4.298146 -11.916983 0.000000 0.000000 0.000000 4.518413 6.015015 -27.590652 -2.436339 -9.721139 28.078433 0.315161 -10.785046 -8.542056 -0.576396 4.860890 -13.512567 -0.118671 0.816518 -1.445910 -0.134532 1.127730 -6.703188 -0.119594 0.581618 -6.136202 3.096315 -1.874155 -10.921306 -2.542368 -2.480737 29.596601 -1.770657 -1.019194 11.311206 0.000000 0.000000 0.000000 20.144858 -7.995119 -63.888325 148.014459 -42.535668 107.268952 20.447098 1.849028 -7.781519 0.000000 0.000000 0.000000 -7.125000 0.000000 0.000000 -5.486711 38.224596 -0.918766 0.000000 0.000000 0.000000 -26.883133 -29.140108 15.733889 -122.713883 -55.542340 -87.907002 -38.998442 -2.405978 -5.480420 0.000000 0.000000 0.000000 7.125000 0.000000 0.000000 -9.033872 22.963559 -4.852071
-0.297133 15.421767 9.854695 -2.546632 29.452991 11.561010 0.000000 0.000000 0.000000 -2.341177 -26.313932 8.301240 0.000000 0.000000 0.000000 0.446357 4.991635 -15.444762 0.472319 -4.407723 -12.226641 0.000000 0.000000 0.000000 9.172160 1.743382 -27.842414 -3.025035 -10.734634 31.391016 0.063047 -11.570522 -15.540583 -0.188576 2.795653 -7.710444 1.523798 1.852795 -1.279879 -0.832219 2.539636 -6.783475 -1.823397 1.178195 -6.217631 0.203782 -4.580708 -10.639039 -0.193446 -6.336573 30.317659 -0.902097 -2.753991 11.615446 0.000000 0.000000 0.000000 18.680421 -10.675599 -69.355872 148.899425 -41.818191 107.863102 19.497976 1.883301 -6.900363 0.000000 0.000000 0.000000 -7.125000 0.000000 0.000000 -6.183513 37.232203 -1.187514 0.000000 0.000000 0.000000 -22.793024 -36.426356 19.359576 -120.951942 -56.049594 -86.449459 -41.304623 -2.436944 -6.949748 0.000000 0.000000 0.000000 7.125000 0.000000 0.000000 -10.448428 20.827499 -6.152681
-0.824241 15.328336 10.214126 -2.344997 34.136174 12.399192 0.000000 0.000000 0.000000 0.878987 -29.012164 6.431066 0.000000 0.000000 0.000000 0.265580 8.297883 -16.065150 0.436714 -4.240525 -11.754447 0.000000 0.000000 0.000000 11.627715 -0.929351 -31.014600 -4.115700 -12.312123 36.846260 -0.344735 -10.810186 -19.728769 -0.159090 2.570242 -7.084444 2.966494 3.319160 -1.383169 -2.311411 4.480541 -6.728906 -4.220184 2.038215 -5.807742 -1.160816 -6.610017 -9.648209 1.678562 -9.442929 30.480045 -0.354458 -4.052431 11.669290 0.000000 0.000000 0.000000 17.553056 -12.336510 -73.488359 149.551067 -41.275061 108.295355 18.933862 0.837254 -6.919828 0.000000 0.000000 0.000000 -7.125000 0.000000 0.000000 -6.661871 37.217779 -1.282572 0.000000 0.000000 0.000000 -15.118066 -46.263194 29.433001 -110.151839 -58.402624 -77.357829 -43.663695 -4.407079 -9.698005 0.000000 0.000000 0.000000 7.125000 0.000000 0.000000 -11.569194 16.854711 -7.880597
-1.261312 15.221031 10.504435 -0.916388 36.255437 13.536864 0.000000 0.000000 0.000000 1.383053 -29.263238 5.613646 0.000000 0.000000 0.000000 0.085961 11.487130 -17.505517 0.304708 -3.548556 -9.809917 0.000000 0.000000 0.000000 12.514389 -2.782341 -34.445864 -5.381067 -13.799798 42.442717 -0.810697 -9.403814 -22.893134 -0.172885 2.678761 -7.385562 3.689388 4.896706 -1.001352 -4.139072 6.556687 -6.469060 -6.585950 3.018692 -5.281960 -1.163797 -7.923204 -9.287554 2.728976 -11.628933 31.567958 -0.257059 -4.836704 12.160362 0.000000 0.000000 0.000000 16.134441 -14.052707 -76.537678 149.014072 -41.723575 107.939465 17.913782 -0.912181 -6.786490 0.000000 0.000000 0.000000 -7.125000 0.000000 0.000000 -7.502622 37.016305 -1.483946 0.000000 0.000000 0.000000 -4.376679 -54.905272 40.609070 -85.602892 -59.908693 -56.193501 -42.467896 1.932981 -9.932601 0.000000 0.000000 0.000000 7.125000 0.000000 0.000000 -10.723873 16.770665 -7.303311
-1.610135 15.094822 10.740985 0.103647 37.471090 14.166089 0.000000 0.000000 0.000000 2.121957 -28.556974 5.071954 0.000000 0.000000 0.000000 0.026608 12.634414 -18.303040 0.279444 -3.399974 -9.394343 0.000000 0.000000 0.000000 13.519012 -4.362822 -36.826000 -6.366427 -14.773839 46.434465 -1.248090 -8.281063 -25.590136 -0.167275 2.634823 -7.263734 3.842395 5.846815 0.080372 -5.387910 7.825133 -6.331343 -8.118017 3.620991 -5.394396 -0.713688 -8.546468 -9.339627 4.156225 -13.069498 32.262060 -0.009696 -5.182929 12.596866 0.000000 0.000000 0.000000 15.235735 -14.793886 -77.763875 148.572277 -42.086168 107.644449 15.902470 -1.719756 -5.732099 0.000000 0.000000 0.000000 -7.125000 0.000000 0.000000 -9.033080 35.814848 -2.060342 0.000000 0.000000 0.000000 4.785009 -58.234010 46.718539 -70.407495 -58.498399 -43.118012 -43.590544 9.346528 -9.262394 0.000000 0.000000 0.000000 7.125000 0.000000 0.000000 -11.603714 17.444299 -7.752957
-1.873961 14.993262 10.945150 0.507553 39.265342 14.680090 0.000000 0.000000 0.000000 4.014364 -28.367683 3.638527 0.000000 0.000000 0.000000 0.097112 11.621331 -17.821275 0.355880 -3.832317 -10.605513 0.000000 0.000000 0.000000 14.610228 -5.255123 -38.755422 -7.259616 -15.546593 49.849372 -1.558051 -8.094140 -27.719795 -0.171132 2.664638 -7.346498 2.848266 5.547524 0.314057 -5.096399 7.397335 -6.099004 -7.260126 3.458403 -5.501190 -0.670583 -8.380694 -9.547027 4.423872 -12.887343 31.870051 0.103487 -5.071467 12.491144 0.000000 0.000000 0.000000 14.518009 -13.969010 -77.244019 149.046767 -41.696555 107.961285 15.834693 -1.321467 -5.193212 0.000000 0.000000 0.000000 -7.125000 0.000000 0.000000 -9.014257 35.258849 -2.179255 0.000000 0.000000 0.000000 8.745150 -58.856333 50.744057 -70.979646 -58.587861 -43.606006 -42.596396 5.346875 -10.082924 0.000000 0.000000 0.000000 7.125000 0.000000 0.000000 -10.782242 16.550622 -7.397403
-1.980439 14.909825 11.045546 -0.042850 39.773558 14.157171 0.000000 0.000000 0.000000 5.270168 -26.785133 3.071527 0.000000 0.000000 0.000000 0.214051 9.910817 -17.188178 0.435241 -4.233494 -11.734411 0.000000 0.000000 0.000000 15.630451 -5.075036 -39.235146 -7.733407 -15.919607 51.596672 -1.680706 -8.687211 -28.952319 -0.174540 2.691235 -7.420171 2.521272 4.653559 -0.011442 -4.037160 6.210089 -5.623440 -5.863360 2.915870 -5.118851 -0.288266 -7.428739 -9.865959 3.226383 -11.223864 31.747336 -0.185607 -4.448448 12.324173 0.000000 0.000000 0.000000 14.746353 -13.013822 -75.012888 149.234789 -41.540349 108.086157 16.934351 -2.547118 -5.847806 0.000000 0.000000 0.000000 -7.125000 0.000000 0.000000 -8.193952 35.988098 -1.830445 0.000000 0.000000 0.000000 8.839883 -59.039652 51.894122 -70.382533 -58.494647 -43.096636 -42.277405 6.660459 -9.486034 0.000000 0.000000 0.000000 7.125000 0.000000 0.000000 -10.676916 17.386308 -7.124099
